<svg xmlns="http://www.w3.org/2000/svg" viewBox="0 0 512 512" role="img" aria-label="Pizza slice logo">
  <defs>
    <linearGradient id="bg" x1="78" y1="42" x2="434" y2="470" gradientUnits="userSpaceOnUse">
      <stop stop-color="#3a1830"/>
      <stop offset="0.48" stop-color="#15131f"/>
      <stop offset="1" stop-color="#12313b"/>
    </linearGradient>
    <linearGradient id="cheese" x1="144" y1="142" x2="370" y2="430" gradientUnits="userSpaceOnUse">
      <stop stop-color="#ffd95a"/>
      <stop offset="0.55" stop-color="#ffc33e"/>
      <stop offset="1" stop-color="#ff9f35"/>
    </linearGradient>
    <linearGradient id="crust" x1="94" y1="105" x2="391" y2="105" gradientUnits="userSpaceOnUse">
      <stop stop-color="#f7b451"/>
      <stop offset="0.5" stop-color="#e9812f"/>
      <stop offset="1" stop-color="#f7b451"/>
    </linearGradient>
  </defs>
  <rect width="512" height="512" rx="108" fill="url(#bg)"/>
  <g transform="rotate(-8 256 256)">
    <path d="M121 143c31-29 206-74 281-55 25 6 35 27 28 50-5 18-19 27-40 25-75-10-180 11-259 49-25 12-48-5-48-31 0-14 15-29 38-38Z" fill="url(#crust)" stroke="#5b2b17" stroke-width="10" stroke-linejoin="round"/>
    <path d="M92 174c-1-28 13-43 33-37 18 6 25 25 19 48-6 22-20 34-35 30-11-3-17-18-17-41Z" fill="#ffd06b" stroke="#5b2b17" stroke-width="8"/>
    <path d="M131 174c70-32 185-52 265-42 12 1 21 11 22 23 2 65-18 194-61 305-5 12-21 13-27 1-10-19-14-47-33-31-16 13-6 52-24 57-21 6-28-41-44-62-20-25-28 20-42 19-21-2-14-53-28-69-16-18-23 32-41 24-16-7-6-49-15-79-7-25-28-2-37-20-8-15 16-51 27-80 8-20 17-36 38-46Z" fill="url(#cheese)" stroke="#5b2b17" stroke-width="10" stroke-linejoin="round"/>
    <path d="M143 184c57-23 147-42 229-39" fill="none" stroke="#d14e2c" stroke-width="16" stroke-linecap="round" opacity="0.7"/>
    <g fill="#cf3c2e" stroke="#6b1f18" stroke-width="6">
      <circle cx="212" cy="220" r="31"/>
      <circle cx="314" cy="199" r="31"/>
      <circle cx="294" cy="315" r="33"/>
      <circle cx="355" cy="397" r="31"/>
    </g>
    <g fill="#7c2d1d" opacity="0.8">
      <circle cx="200" cy="213" r="5"/>
      <circle cx="224" cy="224" r="5"/>
      <circle cx="207" cy="237" r="5"/>
      <circle cx="301" cy="191" r="5"/>
      <circle cx="326" cy="201" r="5"/>
      <circle cx="311" cy="215" r="5"/>
      <circle cx="281" cy="306" r="5"/>
      <circle cx="303" cy="315" r="5"/>
      <circle cx="291" cy="331" r="5"/>
      <circle cx="345" cy="389" r="5"/>
      <circle cx="368" cy="399" r="5"/>
    </g>
    <g fill="#3c9255" stroke="#225433" stroke-width="6" stroke-linejoin="round">
      <path d="M278 238c-11-27 37-32 50-7 6 12-5 16-14 13-2 14-15 17-21 5-8 4-13-2-15-11Z"/>
      <path d="M375 292c-9-24 33-30 45-8 5 11-4 15-12 12-3 12-15 15-20 5-7 4-12-1-13-9Z"/>
      <path d="M321 438c-9-24 31-29 43-8 5 10-4 14-12 12-3 12-14 15-19 5-7 4-11-1-12-9Z"/>
    </g>
    <g fill="#ffd36c" stroke="#9f5520" stroke-width="5">
      <ellipse cx="250" cy="279" rx="13" ry="9"/>
      <ellipse cx="335" cy="267" rx="12" ry="8"/>
      <ellipse cx="240" cy="371" rx="12" ry="8"/>
    </g>
    <g fill="none" stroke="#ffe68f" stroke-width="8" stroke-linecap="round" opacity="0.55">
      <path d="M165 235c20 8 41 8 62 0"/>
      <path d="M320 250c20 6 39 4 55-8"/>
      <path d="M259 392c18 6 36 4 50-6"/>
      <path d="M160 126c48-16 115-30 172-30"/>
    </g>
    <g fill="#ffc23e" stroke="#5b2b17" stroke-width="7">
      <path d="M112 274c-7 23-7 59 6 62 15 3 17-26 8-63Z"/>
      <path d="M188 357c-9 28-6 63 8 65 16 2 15-31 6-66Z"/>
      <path d="M283 432c-7 28-1 61 13 60 16-1 12-34-1-63Z"/>
      <path d="M341 457c-6 27 0 55 13 53 14-3 10-31 0-55Z"/>
    </g>
  </g>
</svg>
