<svg xmlns="http://www.w3.org/2000/svg" viewBox="0 0 512 512" role="img" aria-label="Pizza spinner logo">
  <defs>
    <linearGradient id="bg" x1="76" y1="58" x2="438" y2="454" gradientUnits="userSpaceOnUse">
      <stop stop-color="#3a1830"/>
      <stop offset="0.48" stop-color="#15131f"/>
      <stop offset="1" stop-color="#12313b"/>
    </linearGradient>
    <linearGradient id="crust" x1="124" y1="96" x2="388" y2="416" gradientUnits="userSpaceOnUse">
      <stop stop-color="#ffcb6b"/>
      <stop offset="1" stop-color="#ff8a5c"/>
    </linearGradient>
  </defs>
  <rect width="512" height="512" rx="108" fill="url(#bg)"/>
  <circle cx="256" cy="268" r="172" fill="url(#crust)"/>
  <circle cx="256" cy="268" r="148" fill="#ffd166"/>
  <path d="M256 120v148L151 163a147 147 0 0 1 105-43Z" fill="#ffe08a"/>
  <path d="M151 163l105 105H108a147 147 0 0 1 43-105Z" fill="#ffc857"/>
  <path d="M108 268h148L151 373a147 147 0 0 1-43-105Z" fill="#ffb24d"/>
  <path d="M151 373l105-105v148a147 147 0 0 1-105-43Z" fill="#ffd166"/>
  <path d="M256 416V268l105 105a147 147 0 0 1-105 43Z" fill="#ffc857"/>
  <path d="M361 373 256 268h148a147 147 0 0 1-43 105Z" fill="#ffb24d"/>
  <path d="M404 268H256l105-105a147 147 0 0 1 43 105Z" fill="#ffe08a"/>
  <path d="M361 163 256 268V120a147 147 0 0 1 105 43Z" fill="#ffd166"/>
  <g fill="#d93d3d">
    <circle cx="205" cy="183" r="15"/>
    <circle cx="315" cy="202" r="14"/>
    <circle cx="342" cy="303" r="15"/>
    <circle cx="257" cy="356" r="14"/>
    <circle cx="166" cy="286" r="15"/>
    <circle cx="230" cy="246" r="12"/>
  </g>
  <g stroke="#9a5828" stroke-linecap="round" stroke-width="8" opacity="0.5">
    <path d="M256 130v276"/>
    <path d="M118 268h276"/>
    <path d="m158 170 196 196"/>
    <path d="M354 170 158 366"/>
  </g>
  <circle cx="256" cy="268" r="45" fill="#15131f" stroke="#fff4db" stroke-width="8"/>
  <path d="M256 88v-40" stroke="#fff4db" stroke-linecap="round" stroke-width="18"/>
  <path d="M256 34 208 91h96Z" fill="#fff4db"/>
</svg>
